<?xml version="1.0" encoding="UTF-8"?>
<!DOCTYPE svg PUBLIC "-//W3C//DTD SVG 1.1//EN" "http://www.w3.org/Graphics/SVG/1.1/DTD/svg11.dtd">
<svg xmlns="http://www.w3.org/2000/svg" version="1.1" width="700px" height="295px" style="shape-rendering:geometricPrecision; text-rendering:geometricPrecision; image-rendering:optimizeQuality; fill-rule:evenodd; clip-rule:evenodd" xmlns:xlink="http://www.w3.org/1999/xlink">
<g><path style="opacity:0.998" fill="#5e5f64" d="M 77.5,-0.5 C 78.8333,-0.5 80.1667,-0.5 81.5,-0.5C 123.854,14.2815 166.854,27.2815 210.5,38.5C 211.051,41.0896 212.384,41.7563 214.5,40.5C 220.028,42.2987 225.694,43.2987 231.5,43.5C 269.473,51.0264 307.806,55.8597 346.5,58C 398.168,59.9779 449.835,60.9779 501.5,61C 502.833,61.3333 504.167,61.6667 505.5,62C 500.265,64.7848 494.932,67.2848 489.5,69.5C 486.733,69.8702 484.733,71.2036 483.5,73.5C 475.766,76.6964 468.099,80.1964 460.5,84C 414.488,83.8733 368.488,82.8733 322.5,81C 271.185,78.1706 221.851,66.8373 174.5,47C 141.245,32.7046 108.912,16.8713 77.5,-0.5 Z"/></g>
<g><path style="opacity:1" fill="#8b8d90" d="M 210.5,38.5 C 217.684,39.8566 224.684,41.5233 231.5,43.5C 225.694,43.2987 220.028,42.2987 214.5,40.5C 212.384,41.7563 211.051,41.0896 210.5,38.5 Z"/></g>
<g><path style="opacity:0.361" fill="#6075a4" d="M 555.5,40.5 C 551.386,43.5509 546.72,45.5509 541.5,46.5C 545.866,43.9884 550.533,41.9884 555.5,40.5 Z"/></g>
<g><path style="opacity:1" fill="#283e78" d="M 617.5,37.5 C 626.298,41.6307 634.298,46.964 641.5,53.5C 641.5,54.8333 640.833,55.5 639.5,55.5C 626.148,49.5837 612.482,48.917 598.5,53.5C 598.953,52.5416 599.619,51.7083 600.5,51C 605.905,50.1293 611.238,48.9627 616.5,47.5C 617.711,46.7261 617.711,45.8928 616.5,45C 617.167,44.6667 617.833,44.3333 618.5,44C 617.386,42.4301 616.053,41.0968 614.5,40C 615.833,39.6667 617.167,39.3333 618.5,39C 617.944,38.6174 617.611,38.1174 617.5,37.5 Z"/></g>
<g><path style="opacity:0.567" fill="#9ca4bf" d="M 641.5,53.5 C 644.315,54.9008 645.648,56.9008 645.5,59.5C 643.187,58.4995 641.187,57.1662 639.5,55.5C 640.833,55.5 641.5,54.8333 641.5,53.5 Z"/></g>
<g><path style="opacity:0.322" fill="#737eb1" d="M 586.5,57.5 C 583.2,59.6418 579.533,60.9751 575.5,61.5C 578.797,59.3987 582.463,58.0653 586.5,57.5 Z"/></g>
<g><path style="opacity:0.98" fill="#808082" d="M 79.5,68.5 C 76.4545,68.6582 73.6212,67.9915 71,66.5C 70.5,67 70,67.5 69.5,68C 71.3187,68.7403 72.6521,69.9069 73.5,71.5C 66.8993,68.5319 60.566,65.0319 54.5,61C 62.9421,63.2035 71.2754,65.7035 79.5,68.5 Z"/></g>
<g><path style="opacity:1" fill="#40518c" d="M 560.5,68.5 C 556.584,71.2895 552.251,73.2895 547.5,74.5C 548.936,73.5714 550.269,72.4048 551.5,71C 550.663,69.9887 550.33,68.8221 550.5,67.5C 553.881,67.4595 557.214,67.7929 560.5,68.5 Z"/></g>
<g><path style="opacity:0.298" fill="#abafb0" d="M 489.5,69.5 C 487.882,71.316 485.882,72.6493 483.5,73.5C 484.733,71.2036 486.733,69.8702 489.5,69.5 Z"/></g>
<g><path style="opacity:1" fill="#5f6065" d="M 79.5,68.5 C 125.359,84.1323 172.025,96.9656 219.5,107C 264.061,115.848 309.061,120.348 354.5,120.5C 356.493,121.472 356.826,122.805 355.5,124.5C 331.681,131.496 307.514,137.163 283,141.5C 239.734,137.225 197.901,127.059 157.5,111C 128.775,99.1346 100.775,85.968 73.5,71.5C 72.6521,69.9069 71.3187,68.7403 69.5,68C 70,67.5 70.5,67 71,66.5C 73.6212,67.9915 76.4545,68.6582 79.5,68.5 Z"/></g>
<g><path style="opacity:1" fill="#5e5f65" d="M 65.5,29.5 C 100.33,40.8318 135.33,51.6652 170.5,62C 224.539,76.7286 279.539,85.7286 335.5,89C 371.257,90.3415 406.924,91.1748 442.5,91.5C 425.55,99.4714 408.216,106.638 390.5,113C 333.739,116.096 277.739,111.096 222.5,98C 167.078,81.6077 114.745,58.7744 65.5,29.5 Z"/></g>
<g><path style="opacity:1" fill="#163076" d="M 617.5,37.5 C 617.611,38.1174 617.944,38.6174 618.5,39C 617.167,39.3333 615.833,39.6667 614.5,40C 616.053,41.0968 617.386,42.4301 618.5,44C 617.833,44.3333 617.167,44.6667 616.5,45C 617.711,45.8928 617.711,46.7261 616.5,47.5C 611.238,48.9627 605.905,50.1293 600.5,51C 599.619,51.7083 598.953,52.5416 598.5,53.5C 594.784,55.4053 590.784,56.7387 586.5,57.5C 582.463,58.0653 578.797,59.3987 575.5,61.5C 570.833,64.3966 565.833,66.7299 560.5,68.5C 557.214,67.7929 553.881,67.4595 550.5,67.5C 550.33,68.8221 550.663,69.9887 551.5,71C 550.269,72.4048 548.936,73.5714 547.5,74.5C 533.146,82.0093 518.479,89.0093 503.5,95.5C 499.789,97.3129 495.789,98.4796 491.5,99C 489.808,100.307 488.475,101.807 487.5,103.5C 485.234,103.141 483.401,103.808 482,105.5C 479.607,103.006 478.44,103.673 478.5,107.5C 476.801,107.34 475.134,107.506 473.5,108C 473.833,108.333 474.167,108.667 474.5,109C 472.273,109.941 470.273,111.108 468.5,112.5C 468.158,113.338 467.492,113.672 466.5,113.5C 464.738,113.357 463.071,113.691 461.5,114.5C 460.749,113.624 460.249,112.624 460,111.5C 459.506,113.134 459.34,114.801 459.5,116.5C 457.334,116.579 455.334,117.246 453.5,118.5C 452.833,118.333 452.167,118.167 451.5,118C 452.711,117.107 452.711,116.274 451.5,115.5C 450.77,117.341 450.103,119.175 449.5,121C 447.567,121.251 445.734,121.751 444,122.5C 443.667,122.167 443.333,121.833 443,121.5C 441.905,122.693 441.072,124.027 440.5,125.5C 440.167,125.5 439.833,125.5 439.5,125.5C 438.993,124.141 437.993,123.141 436.5,122.5C 437.681,120.802 437.681,119.135 436.5,117.5C 435.201,118.09 434.368,119.09 434,120.5C 430.484,119.563 426.984,118.563 423.5,117.5C 423.5,115.833 423.5,114.167 423.5,112.5C 431.243,111.155 439.243,110.321 447.5,110C 437.506,109.5 427.506,109.334 417.5,109.5C 417.5,108.5 417.5,107.5 417.5,106.5C 422.058,106.393 426.724,105.727 431.5,104.5C 431.651,101.282 432.484,100.949 434,103.5C 437.574,99.3093 442.074,96.6427 447.5,95.5C 449.079,94.3331 450.412,92.9998 451.5,91.5C 481.531,76.4844 511.531,61.4844 541.5,46.5C 546.72,45.5509 551.386,43.5509 555.5,40.5C 571.709,32.6368 588.709,30.1368 606.5,33C 610.468,34.0377 614.135,35.5377 617.5,37.5 Z"/></g>
<g><path style="opacity:1" fill="#4d5e92" d="M 503.5,95.5 C 498.544,98.7209 493.211,101.388 487.5,103.5C 488.475,101.807 489.808,100.307 491.5,99C 495.789,98.4796 499.789,97.3129 503.5,95.5 Z"/></g>
<g><path style="opacity:1" fill="#394a86" d="M 451.5,91.5 C 450.412,92.9998 449.079,94.3331 447.5,95.5C 442.074,96.6427 437.574,99.3093 434,103.5C 432.484,100.949 431.651,101.282 431.5,104.5C 426.724,105.727 422.058,106.393 417.5,106.5C 428.755,101.544 440.088,96.544 451.5,91.5 Z"/></g>
<g><path style="opacity:1" fill="#485794" d="M 487.5,103.5 C 481.588,107.288 475.255,110.288 468.5,112.5C 470.273,111.108 472.273,109.941 474.5,109C 474.167,108.667 473.833,108.333 473.5,108C 475.134,107.506 476.801,107.34 478.5,107.5C 478.44,103.673 479.607,103.006 482,105.5C 483.401,103.808 485.234,103.141 487.5,103.5 Z"/></g>
<g><path style="opacity:1" fill="#3f4e8c" d="M 466.5,113.5 C 458.288,118.461 449.621,122.461 440.5,125.5C 441.072,124.027 441.905,122.693 443,121.5C 443.333,121.833 443.667,122.167 444,122.5C 445.734,121.751 447.567,121.251 449.5,121C 450.103,119.175 450.77,117.341 451.5,115.5C 452.711,116.274 452.711,117.107 451.5,118C 452.167,118.167 452.833,118.333 453.5,118.5C 455.334,117.246 457.334,116.579 459.5,116.5C 459.34,114.801 459.506,113.134 460,111.5C 460.249,112.624 460.749,113.624 461.5,114.5C 463.071,113.691 464.738,113.357 466.5,113.5 Z"/></g>
<g><path style="opacity:0.639" fill="#9c9c9e" d="M 354.5,120.5 C 365.942,120.414 366.275,121.747 355.5,124.5C 356.826,122.805 356.493,121.472 354.5,120.5 Z"/></g>
<g><path style="opacity:1" fill="#183276" d="M 417.5,106.5 C 417.5,107.5 417.5,108.5 417.5,109.5C 427.506,109.334 437.506,109.5 447.5,110C 439.243,110.321 431.243,111.155 423.5,112.5C 423.5,114.167 423.5,115.833 423.5,117.5C 426.984,118.563 430.484,119.563 434,120.5C 434.368,119.09 435.201,118.09 436.5,117.5C 437.681,119.135 437.681,120.802 436.5,122.5C 437.993,123.141 438.993,124.141 439.5,125.5C 421.597,134.914 402.597,141.581 382.5,145.5C 378.486,145.334 374.486,145.501 370.5,146C 371.5,146.333 372.5,146.667 373.5,147C 368.992,146.877 364.992,148.044 361.5,150.5C 361.167,150.5 360.833,150.5 360.5,150.5C 357.813,150.336 355.146,150.503 352.5,151C 351.944,151.383 351.611,151.883 351.5,152.5C 345.875,153.493 340.208,154.16 334.5,154.5C 330.637,154.538 326.804,154.205 323,153.5C 319.312,155.517 315.478,156.85 311.5,157.5C 308.038,158.482 304.371,158.815 300.5,158.5C 290.142,159.052 279.809,159.052 269.5,158.5C 261.8,159.364 254.467,160.697 247.5,162.5C 238.167,162.5 228.833,162.5 219.5,162.5C 204.5,161.833 189.5,161.167 174.5,160.5C 181.625,158.959 188.958,157.959 196.5,157.5C 201.122,157.844 205.455,157.177 209.5,155.5C 247.026,150.246 284.359,143.912 321.5,136.5C 327.256,136.394 332.589,135.061 337.5,132.5C 342.192,132.575 346.526,131.575 350.5,129.5C 372.972,122.453 395.305,114.786 417.5,106.5 Z"/></g>
<g><path style="opacity:0.839" fill="#5c6fa4" d="M 350.5,129.5 C 346.526,131.575 342.192,132.575 337.5,132.5C 341.547,130.74 345.88,129.74 350.5,129.5 Z"/></g>
<g><path style="opacity:0.961" fill="#506397" d="M 337.5,132.5 C 332.589,135.061 327.256,136.394 321.5,136.5C 326.653,134.878 331.986,133.545 337.5,132.5 Z"/></g>
<g><path style="opacity:0.908" fill="#4b5c8c" d="M 382.5,145.5 C 375.793,147.926 368.793,149.592 361.5,150.5C 364.992,148.044 368.992,146.877 373.5,147C 372.5,146.667 371.5,146.333 370.5,146C 374.486,145.501 378.486,145.334 382.5,145.5 Z"/></g>
<g><path style="opacity:0.361" fill="#6576a9" d="M 360.5,150.5 C 357.655,151.344 354.655,152.01 351.5,152.5C 351.611,151.883 351.944,151.383 352.5,151C 355.146,150.503 357.813,150.336 360.5,150.5 Z"/></g>
<g><path style="opacity:1" fill="#3f548c" d="M 334.5,154.5 C 327.073,156.291 319.407,157.291 311.5,157.5C 315.478,156.85 319.312,155.517 323,153.5C 326.804,154.205 330.637,154.538 334.5,154.5 Z"/></g>
<g><path style="opacity:0.761" fill="#6072a1" d="M 209.5,155.5 C 205.455,157.177 201.122,157.844 196.5,157.5C 200.618,156.291 204.951,155.624 209.5,155.5 Z"/></g>
<g><path style="opacity:1" fill="#3f538b" d="M 300.5,158.5 C 283.033,160.527 265.366,161.86 247.5,162.5C 254.467,160.697 261.8,159.364 269.5,158.5C 279.809,159.052 290.142,159.052 300.5,158.5 Z"/></g>
<g><path style="opacity:1" fill="#3d5592" d="M 169.5,160.5 C 171.167,160.5 172.833,160.5 174.5,160.5C 189.5,161.167 204.5,161.833 219.5,162.5C 202.497,162.667 185.497,162.5 168.5,162C 169.056,161.617 169.389,161.117 169.5,160.5 Z"/></g>
<g><path style="opacity:0.2" fill="#7e8bb7" d="M 169.5,160.5 C 169.389,161.117 169.056,161.617 168.5,162C 185.497,162.5 202.497,162.667 219.5,162.5C 200.662,163.828 181.662,163.828 162.5,162.5C 164.777,161.579 167.11,160.913 169.5,160.5 Z"/></g>
<g><path style="opacity:0.2" fill="#7989bb" d="M 86.5,198.5 C 91.8135,197.051 97.1469,197.384 102.5,199.5C 102.376,200.107 102.043,200.44 101.5,200.5C 96.7831,198.762 91.7831,198.096 86.5,198.5 Z"/></g>
<g><path style="opacity:1" fill="#979699" d="M 579.5,198.5 C 576.061,198.253 572.728,198.586 569.5,199.5C 569.685,197.11 571.018,196.11 573.5,196.5C 575.799,196.599 577.799,197.266 579.5,198.5 Z"/></g>
<g><path style="opacity:0.161" fill="#bfc4d6" d="M 152.5,198.5 C 154.552,199.053 154.885,200.053 153.5,201.5C 153.443,200.391 153.11,199.391 152.5,198.5 Z"/></g>
<g><path style="opacity:0.8" fill="#8a9bc1" d="M 241.5,199.5 C 260.993,198.503 280.66,198.17 300.5,198.5C 300.784,200.415 300.451,202.081 299.5,203.5C 299.5,202.167 299.5,200.833 299.5,199.5C 280.167,199.5 260.833,199.5 241.5,199.5 Z"/></g>
<g><path style="opacity:0.8" fill="#4d5e94" d="M 385.5,198.5 C 391.023,197.289 396.69,197.289 402.5,198.5C 400.913,209.37 398.913,220.037 396.5,230.5C 396.911,220.01 398.578,209.843 401.5,200C 396.22,198.905 390.887,198.405 385.5,198.5 Z"/></g>
<g><path style="opacity:1" fill="#636369" d="M 529.5,196.5 C 555.392,196.642 563.559,208.642 554,232.5C 551.359,237.144 547.525,240.311 542.5,242C 554.33,249.487 557.83,259.987 553,273.5C 547.992,284.501 539.492,291.001 527.5,293C 514.5,293.667 501.5,293.667 488.5,293C 492.445,261.153 497.445,229.319 503.5,197.5C 512.349,197.826 521.016,197.493 529.5,196.5 Z M 513.5,206.5 C 522.528,207.032 531.528,207.865 540.5,209C 546.264,214.768 547.097,221.268 543,228.5C 540.734,232.757 537.234,235.591 532.5,237C 524.547,238.223 516.547,238.723 508.5,238.5C 510.599,227.904 512.266,217.237 513.5,206.5 Z M 521.5,283.5 C 514.313,283.825 507.313,283.491 500.5,282.5C 502.879,271.266 504.879,259.933 506.5,248.5C 514.84,248.334 523.173,248.5 531.5,249C 538.548,251.044 542.214,255.711 542.5,263C 541.557,276.11 534.557,282.943 521.5,283.5 Z"/></g>
<g><path style="opacity:1" fill="#354a84" d="M 481.5,202.5 C 481.53,201.503 481.03,200.836 480,200.5C 474.882,200.827 469.716,200.993 464.5,201C 462.911,203.095 460.911,204.595 458.5,205.5C 460.193,201.934 462.86,199.434 466.5,198C 471.572,197.249 476.572,197.582 481.5,199C 482.791,200.292 482.791,201.458 481.5,202.5 Z"/></g>
<g><path style="opacity:1" fill="#153175" d="M 481.5,202.5 C 478.821,202.525 477.488,203.858 477.5,206.5C 475.425,206.302 473.425,206.135 471.5,206C 472.5,206.833 473.5,207.667 474.5,208.5C 473.137,209.893 472.304,211.559 472,213.5C 471.667,212.833 471.333,212.167 471,211.5C 470.495,213.518 469.995,215.518 469.5,217.5C 467.976,216.826 466.642,215.826 465.5,214.5C 463.566,214.901 462.066,215.901 461,217.5C 458.798,216.087 456.632,214.587 454.5,213C 455.252,212.329 455.586,211.496 455.5,210.5C 455.75,208.326 456.75,206.659 458.5,205.5C 460.911,204.595 462.911,203.095 464.5,201C 469.716,200.993 474.882,200.827 480,200.5C 481.03,200.836 481.53,201.503 481.5,202.5 Z"/></g>
<g><path style="opacity:1" fill="#213978" d="M 216.5,201.5 C 212.596,200.191 208.596,199.191 204.5,198.5C 204.5,199.5 204.5,200.5 204.5,201.5C 199.008,200.317 193.508,199.317 188,198.5C 185.618,199.554 183.118,200.221 180.5,200.5C 180.5,201.5 180.5,202.5 180.5,203.5C 182.5,203.5 184.5,203.5 186.5,203.5C 186.343,204.873 186.51,206.207 187,207.5C 190.744,206.374 194.577,206.207 198.5,207C 199.499,210.931 201.999,213.431 206,214.5C 207.641,212.955 208.807,213.289 209.5,215.5C 208.752,217.416 208.752,219.416 209.5,221.5C 205.763,214.345 199.763,211.345 191.5,212.5C 189.435,212.517 187.435,212.85 185.5,213.5C 182.825,211.316 180.492,208.816 178.5,206C 177.128,205.598 175.795,205.098 174.5,204.5C 173.378,205.63 172.044,206.297 170.5,206.5C 175.914,200.962 182.58,197.795 190.5,197C 195.5,196.333 200.5,196.333 205.5,197C 209.619,197.644 213.285,199.144 216.5,201.5 Z"/></g>
<g><path style="opacity:1" fill="#506094" d="M 427.5,199.5 C 428.794,200.29 429.961,201.29 431,202.5C 434.679,208.852 437.512,215.519 439.5,222.5C 438.115,221.426 436.949,220.093 436,218.5C 433.878,211.758 431.045,205.425 427.5,199.5 Z"/></g>
<g><path style="opacity:1" fill="#183276" d="M 55.5,198.5 C 57.5066,200.837 60.1733,202.171 63.5,202.5C 63.5,204.167 63.5,205.833 63.5,207.5C 65.604,207.201 67.604,207.534 69.5,208.5C 70.0992,213.69 71.4326,218.69 73.5,223.5C 73.2908,224.994 72.6241,226.161 71.5,227C 72.7691,229.139 72.7691,231.305 71.5,233.5C 69.0525,230.246 66.3858,227.246 63.5,224.5C 64.6888,223.571 66.0222,223.238 67.5,223.5C 67.5,220.833 67.5,218.167 67.5,215.5C 64.1226,215.041 60.7893,214.374 57.5,213.5C 57.7228,210.034 56.3894,209.034 53.5,210.5C 51.5406,210.125 49.7073,209.459 48,208.5C 41.8534,209.168 35.6868,210.001 29.5,211C 30.6023,213.401 30.769,215.901 30,218.5C 27.507,219.334 27.007,221.001 28.5,223.5C 28.0291,225.246 27.3624,226.913 26.5,228.5C 27.3022,231.449 27.6355,234.449 27.5,237.5C 27.2962,240.518 26.9629,243.518 26.5,246.5C 31.5111,246.666 36.5111,246.499 41.5,246C 43.8113,245.764 45.8113,244.931 47.5,243.5C 49.0861,242.587 50.5861,242.587 52,243.5C 52.3333,241.5 52.6667,239.5 53,237.5C 54.0113,236.663 55.1779,236.33 56.5,236.5C 56.5,234.833 56.5,233.167 56.5,231.5C 57.5,231.5 58.5,231.5 59.5,231.5C 59.5,234.167 59.5,236.833 59.5,239.5C 60.8333,239.5 62.1667,239.5 63.5,239.5C 63.6509,236.282 64.4842,235.949 66,238.5C 67.0113,237.663 68.1779,237.33 69.5,237.5C 68.5722,240.13 67.5722,242.796 66.5,245.5C 65.8333,244.833 65.1667,244.167 64.5,243.5C 63.2612,245.007 63.5946,246.174 65.5,247C 64.0267,247.71 63.3601,248.876 63.5,250.5C 59.3397,250.325 57.0064,252.325 56.5,256.5C 53.9966,257.084 51.4966,257.751 49,258.5C 47.2108,257.591 45.3774,257.424 43.5,258C 42.4495,259.385 41.1161,260.385 39.5,261C 33.8431,261.499 28.1764,261.666 22.5,261.5C 22.5,263.167 22.5,264.833 22.5,266.5C 22.0327,275.304 20.6994,283.97 18.5,292.5C 12.2015,293.496 5.86818,293.83 -0.5,293.5C -0.5,291.167 -0.5,288.833 -0.5,286.5C 0.166667,286.5 0.5,286.167 0.5,285.5C 1.21199,286.739 2.21199,287.239 3.5,287C 2.24484,281.188 2.41151,275.355 4,269.5C 4.918,267.368 6.25133,266.701 8,267.5C 8.73494,255.725 9.23494,244.058 9.5,232.5C 10.8435,221.44 12.5101,210.44 14.5,199.5C 28.1461,197.548 41.8128,197.215 55.5,198.5 Z M 50.5,215.5 C 55.2222,221.769 55.7222,228.435 52,235.5C 50.7413,238.356 49.2413,241.023 47.5,243.5C 45.8113,244.931 43.8113,245.764 41.5,246C 36.5111,246.499 31.5111,246.666 26.5,246.5C 26.9629,243.518 27.2962,240.518 27.5,237.5C 29.5697,230.087 30.903,222.421 31.5,214.5C 37.9003,213.043 44.2336,213.376 50.5,215.5 Z"/></g>
<g><path style="opacity:1" fill="#1c3676" d="M 241.5,199.5 C 260.833,199.5 280.167,199.5 299.5,199.5C 299.5,200.833 299.5,202.167 299.5,203.5C 299.874,207.647 298.874,211.314 296.5,214.5C 297.644,209.967 298.311,205.301 298.5,200.5C 282.819,200.167 267.152,200.501 251.5,201.5C 250.85,203.558 250.85,205.724 251.5,208C 251.252,209.716 250.585,211.216 249.5,212.5C 252.642,213.167 255.642,213.834 258.5,214.5C 256.952,214.821 256.285,215.821 256.5,217.5C 255.906,224.175 255.24,230.842 254.5,237.5C 253.624,237.631 252.957,237.298 252.5,236.5C 254.079,232.28 254.579,227.947 254,223.5C 253.059,225.061 251.892,226.395 250.5,227.5C 249.571,226.311 249.238,224.978 249.5,223.5C 246.833,223.5 244.167,223.5 241.5,223.5C 240.856,219.236 242.522,216.402 246.5,215C 245.416,212.175 244.249,212.008 243,214.5C 242.751,213.376 242.251,212.376 241.5,211.5C 239.954,217.039 239.12,222.706 239,228.5C 237.961,229.71 236.794,230.71 235.5,231.5C 236.656,220.552 238.656,209.885 241.5,199.5 Z"/></g>
<g><path style="opacity:1" fill="#133176" d="M 296.5,214.5 C 283.833,214.5 271.167,214.5 258.5,214.5C 255.642,213.834 252.642,213.167 249.5,212.5C 250.585,211.216 251.252,209.716 251.5,208C 250.85,205.724 250.85,203.558 251.5,201.5C 267.152,200.501 282.819,200.167 298.5,200.5C 298.311,205.301 297.644,209.967 296.5,214.5 Z"/></g>
<g><path style="opacity:1" fill="#3b4a84" d="M 376.5,214.5 C 375.569,212.967 374.902,211.3 374.5,209.5C 375.5,207.833 376.5,206.167 377.5,204.5C 376.167,203.5 376.167,202.5 377.5,201.5C 377.023,200.522 376.357,199.689 375.5,199C 373.167,198.333 370.833,198.333 368.5,199C 365.843,200.834 363.177,202.667 360.5,204.5C 361.203,202.284 362.536,200.451 364.5,199C 369.066,197.691 373.733,197.191 378.5,197.5C 378.784,203.417 378.117,209.084 376.5,214.5 Z"/></g>
<g><path style="opacity:1" fill="#646469" d="M 699.5,202.5 C 699.5,203.833 699.5,205.167 699.5,206.5C 698.442,207.6 697.608,208.934 697,210.5C 696.196,211.804 695.029,212.471 693.5,212.5C 689.07,210.188 684.404,208.354 679.5,207C 667.141,204.221 657.641,208.055 651,218.5C 649.807,223.152 650.64,227.319 653.5,231C 663.959,236.063 674.292,241.396 684.5,247C 692.42,254.34 694.586,263.174 691,273.5C 686.349,284.655 678.182,291.655 666.5,294.5C 658.5,294.5 650.5,294.5 642.5,294.5C 635.777,293.139 629.777,290.139 624.5,285.5C 623.943,281.752 625.277,278.586 628.5,276C 629.833,275.333 631.167,275.333 632.5,276C 645.367,285.544 659.033,286.878 673.5,280C 681.432,271.926 681.432,263.926 673.5,256C 661.674,251.506 650.84,245.339 641,237.5C 635.164,222.338 638.998,210.172 652.5,201C 668.454,193.47 684.121,193.97 699.5,202.5 Z"/></g>
<g><path style="opacity:1" fill="#173177" d="M 385.5,198.5 C 390.887,198.405 396.22,198.905 401.5,200C 398.578,209.843 396.911,220.01 396.5,230.5C 396.369,234.952 395.702,239.286 394.5,243.5C 392.989,246.544 392.322,249.878 392.5,253.5C 391.33,263.523 389.997,273.523 388.5,283.5C 385.05,282.756 383.384,284.09 383.5,287.5C 379.833,287.5 376.167,287.5 372.5,287.5C 372.68,283.714 371.68,280.381 369.5,277.5C 369.5,277.167 369.5,276.833 369.5,276.5C 370.117,276.389 370.617,276.056 371,275.5C 371.834,270.163 372.667,264.83 373.5,259.5C 373.457,258.584 373.124,257.917 372.5,257.5C 375.941,237.853 379.274,218.187 382.5,198.5C 383.5,198.5 384.5,198.5 385.5,198.5 Z"/></g>
<g><path style="opacity:1" fill="#485791" d="M 481.5,202.5 C 478.21,208.087 474.21,213.087 469.5,217.5C 469.995,215.518 470.495,213.518 471,211.5C 471.333,212.167 471.667,212.833 472,213.5C 472.304,211.559 473.137,209.893 474.5,208.5C 473.5,207.667 472.5,206.833 471.5,206C 473.425,206.135 475.425,206.302 477.5,206.5C 477.488,203.858 478.821,202.525 481.5,202.5 Z"/></g>
<g><path style="opacity:1" fill="#233979" d="M 55.5,198.5 C 68.7567,201.261 75.09,209.427 74.5,223C 74.5792,234.731 70.5792,244.731 62.5,253C 60.5952,254.421 58.5952,255.588 56.5,256.5C 57.0064,252.325 59.3397,250.325 63.5,250.5C 63.3601,248.876 64.0267,247.71 65.5,247C 63.5946,246.174 63.2612,245.007 64.5,243.5C 65.1667,244.167 65.8333,244.833 66.5,245.5C 67.5722,242.796 68.5722,240.13 69.5,237.5C 68.1779,237.33 67.0113,237.663 66,238.5C 64.4842,235.949 63.6509,236.282 63.5,239.5C 62.1667,239.5 60.8333,239.5 59.5,239.5C 59.5,236.833 59.5,234.167 59.5,231.5C 58.5,231.5 57.5,231.5 56.5,231.5C 56.5,233.167 56.5,234.833 56.5,236.5C 55.1779,236.33 54.0113,236.663 53,237.5C 52.6667,239.5 52.3333,241.5 52,243.5C 50.5861,242.587 49.0861,242.587 47.5,243.5C 49.2413,241.023 50.7413,238.356 52,235.5C 55.7222,228.435 55.2222,221.769 50.5,215.5C 49.9423,214.21 48.9423,213.377 47.5,213C 44.8333,212.833 42.1667,212.667 39.5,212.5C 36.4098,212.522 33.7432,213.188 31.5,214.5C 30.903,222.421 29.5697,230.087 27.5,237.5C 27.6355,234.449 27.3022,231.449 26.5,228.5C 27.3624,226.913 28.0291,225.246 28.5,223.5C 27.007,221.001 27.507,219.334 30,218.5C 30.769,215.901 30.6023,213.401 29.5,211C 35.6868,210.001 41.8534,209.168 48,208.5C 49.7073,209.459 51.5406,210.125 53.5,210.5C 56.3894,209.034 57.7228,210.034 57.5,213.5C 60.7893,214.374 64.1226,215.041 67.5,215.5C 67.5,218.167 67.5,220.833 67.5,223.5C 66.0222,223.238 64.6888,223.571 63.5,224.5C 66.3858,227.246 69.0525,230.246 71.5,233.5C 72.7691,231.305 72.7691,229.139 71.5,227C 72.6241,226.161 73.2908,224.994 73.5,223.5C 71.4326,218.69 70.0992,213.69 69.5,208.5C 67.604,207.534 65.604,207.201 63.5,207.5C 63.5,205.833 63.5,204.167 63.5,202.5C 60.1733,202.171 57.5066,200.837 55.5,198.5 Z"/></g>
<g><path style="opacity:0.6" fill="#596ea2" d="M 50.5,215.5 C 44.2336,213.376 37.9003,213.043 31.5,214.5C 33.7432,213.188 36.4098,212.522 39.5,212.5C 42.1667,212.667 44.8333,212.833 47.5,213C 48.9423,213.377 49.9423,214.21 50.5,215.5 Z"/></g>
<g><path style="opacity:0.6" fill="#7f95ca" d="M 258.5,214.5 C 271.167,214.5 283.833,214.5 296.5,214.5C 283.098,214.871 269.764,215.871 256.5,217.5C 256.285,215.821 256.952,214.821 258.5,214.5 Z"/></g>
<g><path style="opacity:1" fill="#193277" d="M 427.5,199.5 C 431.045,205.425 433.878,211.758 436,218.5C 436.949,220.093 438.115,221.426 439.5,222.5C 440.338,222.842 440.672,223.508 440.5,224.5C 440.5,225.833 440.5,227.167 440.5,228.5C 445.618,228.944 448.285,226.611 448.5,221.5C 449.748,220.96 450.915,220.293 452,219.5C 452.36,217.579 453.194,215.912 454.5,214.5C 456.327,217.748 458.66,220.581 461.5,223C 460.833,223.333 460.167,223.667 459.5,224C 461.107,225.049 461.773,226.549 461.5,228.5C 460.5,230.167 459.167,231.5 457.5,232.5C 453.258,233.417 451.258,236.083 451.5,240.5C 451.489,242.017 450.823,243.184 449.5,244C 456.623,259.081 463.623,274.248 470.5,289.5C 467.779,291.734 464.779,293.401 461.5,294.5C 458.833,294.5 456.167,294.5 453.5,294.5C 451.132,293.217 448.965,291.55 447,289.5C 442.667,280.167 438.333,270.833 434,261.5C 430.595,265.064 427.428,268.731 424.5,272.5C 418.377,274.275 415.377,278.275 415.5,284.5C 415.5,285.167 415.167,285.5 414.5,285.5C 412.584,287.116 411.084,286.782 410,284.5C 409.5,285 409,285.5 408.5,286C 409.833,288 409.833,290 408.5,292C 403.511,292.499 398.511,292.666 393.5,292.5C 392.5,292.5 391.5,292.5 390.5,292.5C 390.491,290.692 390.991,289.025 392,287.5C 403.092,272.985 414.426,258.651 426,244.5C 424.974,241.261 423.807,237.927 422.5,234.5C 422.067,231.834 421.567,229.168 421,226.5C 420.583,225.244 419.75,224.577 418.5,224.5C 414.336,217.506 410.67,210.173 407.5,202.5C 412.982,197.882 419.315,196.382 426.5,198C 427.056,198.383 427.389,198.883 427.5,199.5 Z"/></g>
<g><path style="opacity:1" fill="#586c99" d="M 225.5,210.5 C 228.724,214.497 230.39,219.164 230.5,224.5C 227.954,220.237 226.287,215.57 225.5,210.5 Z"/></g>
<g><path style="opacity:1" fill="#2a3f7c" d="M 455.5,210.5 C 455.586,211.496 455.252,212.329 454.5,213C 456.632,214.587 458.798,216.087 461,217.5C 462.066,215.901 463.566,214.901 465.5,214.5C 466.642,215.826 467.976,216.826 469.5,217.5C 466.801,221.19 464.135,224.857 461.5,228.5C 461.773,226.549 461.107,225.049 459.5,224C 460.167,223.667 460.833,223.333 461.5,223C 458.66,220.581 456.327,217.748 454.5,214.5C 453.194,215.912 452.36,217.579 452,219.5C 450.915,220.293 449.748,220.96 448.5,221.5C 448.285,226.611 445.618,228.944 440.5,228.5C 440.5,227.167 440.5,225.833 440.5,224.5C 441.222,224.918 441.722,225.584 442,226.5C 446.281,220.91 450.781,215.577 455.5,210.5 Z"/></g>
<g><path style="opacity:0.999" fill="#626267" d="M 598.5,294.5 C 591.5,294.5 584.5,294.5 577.5,294.5C 567.982,292.152 561.815,286.152 559,276.5C 558.333,271.167 558.333,265.833 559,260.5C 562.576,240.128 566.076,219.794 569.5,199.5C 572.728,198.586 576.061,198.253 579.5,198.5C 580.634,200.966 580.801,203.633 580,206.5C 577.718,219.195 575.551,231.862 573.5,244.5C 571.989,246.476 571.156,248.809 571,251.5C 570.547,254.84 570.047,258.174 569.5,261.5C 569.52,262.726 569.853,263.726 570.5,264.5C 569.743,277.674 575.91,284.674 589,285.5C 602.745,284.753 611.412,277.753 615,264.5C 618.772,242.144 622.605,219.81 626.5,197.5C 630.167,196.167 633.833,196.167 637.5,197.5C 635.048,217.931 631.881,238.264 628,258.5C 625.914,277.067 616.08,289.067 598.5,294.5 Z"/></g>
<g><path style="opacity:1" fill="#515d92" d="M 418.5,224.5 C 419.75,224.577 420.583,225.244 421,226.5C 421.567,229.168 422.067,231.834 422.5,234.5C 420.597,231.47 419.263,228.137 418.5,224.5 Z"/></g>
<g><path style="opacity:1" fill="#4e619c" d="M 78.5,223.5 C 78.2229,226.448 78.5562,229.281 79.5,232C 78.3094,232.698 77.3094,233.531 76.5,234.5C 76.6459,230.613 77.3126,226.946 78.5,223.5 Z"/></g>
<g><path style="opacity:1" fill="#445482" d="M 457.5,232.5 C 455.984,235.533 453.984,238.2 451.5,240.5C 451.258,236.083 453.258,233.417 457.5,232.5 Z"/></g>
<g><path style="opacity:1" fill="#354882" d="M 305.5,207.5 C 305.535,214.846 304.535,222.013 302.5,229C 303.907,232.371 304.407,235.871 304,239.5C 303.086,235.815 302.419,236.148 302,240.5C 301.051,242.093 299.885,243.426 298.5,244.5C 300.742,232.031 303.076,219.698 305.5,207.5 Z"/></g>
<g><path style="opacity:1" fill="#1b3477" d="M 152.5,198.5 C 153.11,199.391 153.443,200.391 153.5,201.5C 150.044,223.572 146.377,245.572 142.5,267.5C 140.818,270.668 139.818,274.168 139.5,278C 139.528,279.07 139.861,279.903 140.5,280.5C 139.725,284.814 139.059,289.147 138.5,293.5C 131.833,293.5 125.167,293.5 118.5,293.5C 120.677,279.938 123.01,266.438 125.5,253C 125,252.833 124.5,252.667 124,252.5C 113.556,253.462 103.223,253.796 93,253.5C 90.7235,266.825 88.5569,280.158 86.5,293.5C 79.8333,293.5 73.1667,293.5 66.5,293.5C 69.7313,273.779 73.0646,254.112 76.5,234.5C 77.3094,233.531 78.3094,232.698 79.5,232C 78.5562,229.281 78.2229,226.448 78.5,223.5C 79.4481,215.81 80.6148,208.144 82,200.5C 83.049,198.893 84.549,198.227 86.5,198.5C 91.7831,198.096 96.7831,198.762 101.5,200.5C 100.04,212.261 98.0399,223.928 95.5,235.5C 106.446,235.174 117.446,235.508 128.5,236.5C 130.067,223.763 132.067,211.096 134.5,198.5C 140.513,197.216 146.513,197.216 152.5,198.5 Z"/></g>
<g><path style="opacity:1" fill="#5d75a9" d="M 394.5,243.5 C 394.451,247.078 393.785,250.411 392.5,253.5C 392.322,249.878 392.989,246.544 394.5,243.5 Z"/></g>
<g><path style="opacity:1" fill="#2b407b" d="M 9.5,232.5 C 9.23494,244.058 8.73494,255.725 8,267.5C 6.25133,266.701 4.918,267.368 4,269.5C 2.41151,275.355 2.24484,281.188 3.5,287C 2.21199,287.239 1.21199,286.739 0.5,285.5C 2.62474,267.561 5.62474,249.894 9.5,232.5 Z"/></g>
<g><path style="opacity:1" fill="#445c91" d="M 230.5,226.5 C 230.666,233.175 230.5,239.842 230,246.5C 229.431,250.795 228.264,254.795 226.5,258.5C 227.97,248.016 229.303,237.349 230.5,226.5 Z"/></g>
<g><path style="opacity:1" fill="#60709d" d="M 284.5,248.5 C 284.714,250.144 284.38,251.644 283.5,253C 272.251,252.888 261.251,253.722 250.5,255.5C 250.5,254.5 250.5,253.5 250.5,252.5C 261.172,252.667 271.839,252.5 282.5,252C 283.085,250.698 283.751,249.531 284.5,248.5 Z"/></g>
<g><path style="opacity:1" fill="#193277" d="M 338.5,229.5 C 338.719,233.8 339.719,237.8 341.5,241.5C 344.798,250.234 347.631,259.234 350,268.5C 351.759,254.094 353.925,239.761 356.5,225.5C 357.117,225.389 357.617,225.056 358,224.5C 359.053,218.186 359.886,211.853 360.5,205.5C 360.5,205.167 360.5,204.833 360.5,204.5C 363.177,202.667 365.843,200.834 368.5,199C 370.833,198.333 373.167,198.333 375.5,199C 376.357,199.689 377.023,200.522 377.5,201.5C 376.167,202.5 376.167,203.5 377.5,204.5C 376.5,206.167 375.5,207.833 374.5,209.5C 374.902,211.3 375.569,212.967 376.5,214.5C 373.368,235.627 369.701,256.627 365.5,277.5C 364.028,281.919 363.362,286.586 363.5,291.5C 363.389,292.117 363.056,292.617 362.5,293C 355.167,293.667 347.833,293.667 340.5,293C 337.126,284.044 334.459,274.877 332.5,265.5C 331.269,257.732 328.935,250.398 325.5,243.5C 322.914,237.505 321.08,231.172 320,224.5C 318.022,236.513 316.189,248.513 314.5,260.5C 313.252,261.334 312.585,262.667 312.5,264.5C 311.836,268.476 311.503,272.476 311.5,276.5C 310.163,277.315 309.163,278.482 308.5,280C 308.419,281.467 308.753,283.134 309.5,285C 308.22,287.36 307.553,289.86 307.5,292.5C 302.5,292.5 297.5,292.5 292.5,292.5C 292.5,290.167 292.5,287.833 292.5,285.5C 294.609,271.848 296.609,258.182 298.5,244.5C 299.885,243.426 301.051,242.093 302,240.5C 302.419,236.148 303.086,235.815 304,239.5C 304.407,235.871 303.907,232.371 302.5,229C 304.535,222.013 305.535,214.846 305.5,207.5C 305.704,204.482 306.037,201.482 306.5,198.5C 314.174,197.207 321.841,197.207 329.5,198.5C 332.655,208.788 335.655,219.121 338.5,229.5 Z"/></g>
<g><path style="opacity:1" fill="#6176a4" d="M 338.5,229.5 C 340.416,233.163 341.416,237.163 341.5,241.5C 339.719,237.8 338.719,233.8 338.5,229.5 Z"/></g>
<g><path style="opacity:1" fill="#506195" d="M 360.5,205.5 C 359.886,211.853 359.053,218.186 358,224.5C 357.617,225.056 357.117,225.389 356.5,225.5C 357.039,218.558 358.373,211.891 360.5,205.5 Z"/></g>
<g><path style="opacity:1" fill="#8c8c8f" d="M 573.5,244.5 C 572.716,251.202 571.716,257.869 570.5,264.5C 569.853,263.726 569.52,262.726 569.5,261.5C 570.047,258.174 570.547,254.84 571,251.5C 571.156,248.809 571.989,246.476 573.5,244.5 Z"/></g>
<g><path style="opacity:1" fill="#3c4e8c" d="M 56.5,256.5 C 52.4554,259.577 47.7887,261.411 42.5,262C 36.1754,262.5 29.8421,262.666 23.5,262.5C 23.7678,264.099 23.4345,265.432 22.5,266.5C 22.5,264.833 22.5,263.167 22.5,261.5C 28.1764,261.666 33.8431,261.499 39.5,261C 41.1161,260.385 42.4495,259.385 43.5,258C 45.3774,257.424 47.2108,257.591 49,258.5C 51.4966,257.751 53.9966,257.084 56.5,256.5 Z"/></g>
<g><path style="opacity:1" fill="#4d6091" d="M 325.5,243.5 C 328.935,250.398 331.269,257.732 332.5,265.5C 329.393,258.508 327.059,251.174 325.5,243.5 Z"/></g>
<g><path style="opacity:1" fill="#4d5c98" d="M 372.5,257.5 C 373.124,257.917 373.457,258.584 373.5,259.5C 372.667,264.83 371.834,270.163 371,275.5C 370.617,276.056 370.117,276.389 369.5,276.5C 370.177,270.105 371.177,263.772 372.5,257.5 Z"/></g>
<g><path style="opacity:1" fill="#4f659c" d="M 314.5,260.5 C 314.129,266.076 313.129,271.409 311.5,276.5C 311.503,272.476 311.836,268.476 312.5,264.5C 312.585,262.667 313.252,261.334 314.5,260.5 Z"/></g>
<g><path style="opacity:1" fill="#173175" d="M 254.5,237.5 C 264.833,237.5 275.167,237.5 285.5,237.5C 285.815,241.371 285.482,245.038 284.5,248.5C 283.751,249.531 283.085,250.698 282.5,252C 271.839,252.5 261.172,252.667 250.5,252.5C 250.5,253.5 250.5,254.5 250.5,255.5C 249.501,262.831 248.501,270.164 247.5,277.5C 248.833,277.5 250.167,277.5 251.5,277.5C 263.649,278.725 275.983,279.391 288.5,279.5C 288.649,280.552 288.483,281.552 288,282.5C 287.346,281.304 286.846,281.304 286.5,282.5C 287.248,284.416 287.248,286.416 286.5,288.5C 285.101,291.39 282.768,292.89 279.5,293C 263.833,293.667 248.167,293.667 232.5,293C 230.671,292.727 229.171,291.893 228,290.5C 226.517,287.298 226.183,283.964 227,280.5C 229.856,264.025 232.689,247.691 235.5,231.5C 236.794,230.71 237.961,229.71 239,228.5C 239.12,222.706 239.954,217.039 241.5,211.5C 242.251,212.376 242.751,213.376 243,214.5C 244.249,212.008 245.416,212.175 246.5,215C 242.522,216.402 240.856,219.236 241.5,223.5C 244.167,223.5 246.833,223.5 249.5,223.5C 249.238,224.978 249.571,226.311 250.5,227.5C 251.892,226.395 253.059,225.061 254,223.5C 254.579,227.947 254.079,232.28 252.5,236.5C 252.957,237.298 253.624,237.631 254.5,237.5 Z"/></g>
<g><path style="opacity:0.6" fill="#6278a6" d="M 149.5,271.5 C 151.267,273.792 152.267,276.458 152.5,279.5C 150.733,277.208 149.733,274.542 149.5,271.5 Z"/></g>
<g><path style="opacity:1" fill="#3a4f82" d="M 226.5,259.5 C 224.367,267.107 220.7,273.774 215.5,279.5C 215.201,277.396 215.534,275.396 216.5,273.5C 220.267,269.078 223.601,264.412 226.5,259.5 Z"/></g>
<g><path style="opacity:1" fill="#51659e" d="M 142.5,267.5 C 142.156,271.894 141.49,276.228 140.5,280.5C 139.861,279.903 139.528,279.07 139.5,278C 139.818,274.168 140.818,270.668 142.5,267.5 Z"/></g>
<g><path style="opacity:0.4" fill="#b4bcdb" d="M 251.5,277.5 C 264.323,276.505 277.323,276.171 290.5,276.5C 290.737,277.791 290.404,278.791 289.5,279.5C 277.211,277.52 264.544,276.853 251.5,277.5 Z"/></g>
<g><path style="opacity:1" fill="#364c83" d="M 424.5,272.5 C 422.262,277.071 419.262,281.071 415.5,284.5C 415.377,278.275 418.377,274.275 424.5,272.5 Z"/></g>
<g><path style="opacity:1" fill="#31457a" d="M 251.5,277.5 C 264.544,276.853 277.211,277.52 289.5,279.5C 289.472,282.916 288.472,285.916 286.5,288.5C 287.248,286.416 287.248,284.416 286.5,282.5C 286.846,281.304 287.346,281.304 288,282.5C 288.483,281.552 288.649,280.552 288.5,279.5C 275.983,279.391 263.649,278.725 251.5,277.5 Z"/></g>
<g><path style="opacity:1" fill="#183276" d="M 216.5,201.5 C 220.5,203.5 223.5,206.5 225.5,210.5C 226.287,215.57 227.954,220.237 230.5,224.5C 230.5,225.167 230.5,225.833 230.5,226.5C 229.303,237.349 227.97,248.016 226.5,258.5C 226.5,258.833 226.5,259.167 226.5,259.5C 223.601,264.412 220.267,269.078 216.5,273.5C 215.534,275.396 215.201,277.396 215.5,279.5C 213.833,281.833 211.833,283.833 209.5,285.5C 207.518,285.995 205.518,286.495 203.5,287C 203.833,287.333 204.167,287.667 204.5,288C 203.335,289.084 202.002,289.917 200.5,290.5C 197.17,289.501 194.504,290.501 192.5,293.5C 192.5,293.833 192.5,294.167 192.5,294.5C 185.167,294.5 177.833,294.5 170.5,294.5C 162.166,292.329 156.166,287.329 152.5,279.5C 152.267,276.458 151.267,273.792 149.5,271.5C 146.05,250.621 150.217,231.288 162,213.5C 164.436,210.553 167.269,208.22 170.5,206.5C 172.044,206.297 173.378,205.63 174.5,204.5C 175.795,205.098 177.128,205.598 178.5,206C 180.492,208.816 182.825,211.316 185.5,213.5C 185.5,214.167 185.5,214.833 185.5,215.5C 183.596,215.738 182.262,216.738 181.5,218.5C 179.518,218.995 177.518,219.495 175.5,220C 175.833,220.333 176.167,220.667 176.5,221C 175.732,223.369 174.565,225.535 173,227.5C 172.333,224.833 171.667,224.833 171,227.5C 170.242,229.769 170.409,231.936 171.5,234C 171.167,234.167 170.833,234.333 170.5,234.5C 169.757,233.092 168.923,231.759 168,230.5C 167.839,240.044 167.672,249.544 167.5,259C 167.486,262.76 168.153,266.26 169.5,269.5C 171.672,273.837 175.005,277.004 179.5,279C 190.345,280.486 198.179,276.32 203,266.5C 209.507,252.122 211.674,237.122 209.5,221.5C 208.752,219.416 208.752,217.416 209.5,215.5C 208.807,213.289 207.641,212.955 206,214.5C 201.999,213.431 199.499,210.931 198.5,207C 194.577,206.207 190.744,206.374 187,207.5C 186.51,206.207 186.343,204.873 186.5,203.5C 184.5,203.5 182.5,203.5 180.5,203.5C 180.5,202.5 180.5,201.5 180.5,200.5C 183.118,200.221 185.618,199.554 188,198.5C 193.508,199.317 199.008,200.317 204.5,201.5C 204.5,200.5 204.5,199.5 204.5,198.5C 208.596,199.191 212.596,200.191 216.5,201.5 Z M 191.5,212.5 C 199.763,211.345 205.763,214.345 209.5,221.5C 211.674,237.122 209.507,252.122 203,266.5C 198.179,276.32 190.345,280.486 179.5,279C 175.005,277.004 171.672,273.837 169.5,269.5C 168.428,256.175 169.928,243.175 174,230.5C 175.933,226.083 178.433,222.083 181.5,218.5C 182.262,216.738 183.596,215.738 185.5,215.5C 187.574,214.486 189.574,213.486 191.5,212.5 Z"/></g>
<g><path style="opacity:1" fill="#354884" d="M 181.5,218.5 C 178.433,222.083 175.933,226.083 174,230.5C 169.928,243.175 168.428,256.175 169.5,269.5C 168.153,266.26 167.486,262.76 167.5,259C 167.672,249.544 167.839,240.044 168,230.5C 168.923,231.759 169.757,233.092 170.5,234.5C 170.833,234.333 171.167,234.167 171.5,234C 170.409,231.936 170.242,229.769 171,227.5C 171.667,224.833 172.333,224.833 173,227.5C 174.565,225.535 175.732,223.369 176.5,221C 176.167,220.667 175.833,220.333 175.5,220C 177.518,219.495 179.518,218.995 181.5,218.5 Z"/></g>
<g><path style="opacity:0.361" fill="#97a3d1" d="M 191.5,212.5 C 189.574,213.486 187.574,214.486 185.5,215.5C 185.5,214.833 185.5,214.167 185.5,213.5C 187.435,212.85 189.435,212.517 191.5,212.5 Z"/></g>
<g><path style="opacity:1" fill="#909194" d="M 500.5,282.5 C 507.313,283.491 514.313,283.825 521.5,283.5C 514.576,285.463 507.243,286.13 499.5,285.5C 499.263,284.209 499.596,283.209 500.5,282.5 Z"/></g>
<g><path style="opacity:1" fill="#253b76" d="M 369.5,277.5 C 371.68,280.381 372.68,283.714 372.5,287.5C 376.167,287.5 379.833,287.5 383.5,287.5C 383.384,284.09 385.05,282.756 388.5,283.5C 387.941,286.516 387.275,289.516 386.5,292.5C 379.833,293.833 373.167,293.833 366.5,292.5C 367.608,287.515 368.608,282.515 369.5,277.5 Z"/></g>
<g><path style="opacity:0.278" fill="#5d72ac" d="M 365.5,277.5 C 365.638,282.414 364.972,287.081 363.5,291.5C 363.362,286.586 364.028,281.919 365.5,277.5 Z"/></g>
<g><path style="opacity:1" fill="#44588c" d="M 209.5,285.5 C 205.013,290.451 199.347,293.118 192.5,293.5C 194.504,290.501 197.17,289.501 200.5,290.5C 202.002,289.917 203.335,289.084 204.5,288C 204.167,287.667 203.833,287.333 203.5,287C 205.518,286.495 207.518,285.995 209.5,285.5 Z"/></g>
<g><path style="opacity:1" fill="#425288" d="M 311.5,276.5 C 310.942,282.18 310.275,287.847 309.5,293.5C 303.132,293.83 296.798,293.496 290.5,292.5C 291.067,290.018 291.734,287.684 292.5,285.5C 292.5,287.833 292.5,290.167 292.5,292.5C 297.5,292.5 302.5,292.5 307.5,292.5C 307.553,289.86 308.22,287.36 309.5,285C 308.753,283.134 308.419,281.467 308.5,280C 309.163,278.482 310.163,277.315 311.5,276.5 Z"/></g>
<g><path style="opacity:0.935" fill="#495992" d="M 414.5,285.5 C 413.081,288.1 411.415,290.6 409.5,293C 403.984,293.817 398.65,293.651 393.5,292.5C 398.511,292.666 403.511,292.499 408.5,292C 409.833,290 409.833,288 408.5,286C 409,285.5 409.5,285 410,284.5C 411.084,286.782 412.584,287.116 414.5,285.5 Z"/></g>
</svg>
